<svg xmlns="http://www.w3.org/2000/svg" width="32.783" height="32" viewBox="0 0 32.783 32">
  <g id="Group_1789" data-name="Group 1789" transform="translate(-22.171 -18)">
    <g id="Group_1786" data-name="Group 1786">
      <path id="Path_1863" data-name="Path 1863" d="M48.807,50H28.318a6.074,6.074,0,0,1-6.147-6V24a6.074,6.074,0,0,1,6.147-6H48.807a6.074,6.074,0,0,1,6.147,6V44a6.074,6.074,0,0,1-6.147,6Z" fill="#f5e6fe" fill-rule="evenodd"/>
    </g>
    <g id="Group_1787" data-name="Group 1787">
      <path id="Path_1864" data-name="Path 1864" d="M31.542,42H43.535a1.16,1.16,0,0,0,1.174-1.147v-8.58a3.974,3.974,0,0,1-.512.053,1.388,1.388,0,0,1-.171.007,2.908,2.908,0,0,1-.341-.02V34.52l-1.311-.953a1.2,1.2,0,0,0-1.482.047l-3.558,2.933-.259.04L34.868,34.92a1.213,1.213,0,0,0-1.489,0l-1.989,1.553V29.146A.15.15,0,0,1,31.542,29h8.749a2.7,2.7,0,0,1-.021-.333,1.322,1.322,0,0,1,.007-.167,4.078,4.078,0,0,1,.054-.5h-8.79a1.161,1.161,0,0,0-1.175,1.147V40.854A1.16,1.16,0,0,0,31.542,42Z" fill="#be63f9" fill-rule="evenodd"/>
    </g>
    <g id="Group_1788" data-name="Group 1788">
      <ellipse id="Ellipse_111" data-name="Ellipse 111" cx="2.732" cy="2.667" rx="2.732" ry="2.667" transform="translate(41.294 26)" fill="#d9a4fc"/>
    </g>
  </g>
</svg>
