<svg xmlns="http://www.w3.org/2000/svg" width="32" height="32" viewBox="0 0 32 32">
  <g id="Group_2232" data-name="Group 2232" transform="translate(-44 -2257)">
    <g id="Group_2015" data-name="Group 2015" transform="translate(-442 2239.5)">
      <path id="Path_1915" data-name="Path 1915" d="M491,17.5h22a5,5,0,0,1,5,5v22a5,5,0,0,1-5,5H491a5,5,0,0,1-5-5v-22A5,5,0,0,1,491,17.5Z" fill="#f5e6fe" fill-rule="evenodd"/>
    </g>
    <g id="Group_2017" data-name="Group 2017" transform="translate(-442 2239.5)">
      <g id="Group_1892" data-name="Group 1892">
        <g id="Group_1891" data-name="Group 1891">
          <g id="Group_1885" data-name="Group 1885">
            <path id="Path_1916" data-name="Path 1916" d="M495.356,28.353a9.914,9.914,0,0,1,6.058-2.51v5.024a5.271,5.271,0,0,0-3.556-.013Z" fill="#be63f9" fill-rule="evenodd"/>
          </g>
          <g id="Group_1886" data-name="Group 1886">
            <path id="Path_1917" data-name="Path 1917" d="M508.422,28.16l-4.733,4.318a5.339,5.339,0,0,0-1.1-1.008V25.844A9.912,9.912,0,0,1,508.422,28.16Z" fill="#be63f9" fill-rule="evenodd"/>
          </g>
          <g id="Group_1887" data-name="Group 1887">
            <path id="Path_1918" data-name="Path 1918" d="M492,36.412v-.586a9.929,9.929,0,0,1,2.527-6.644l2.222,2.222a5.272,5.272,0,0,0-2.4,4.423v.586Z" fill="#be63f9" fill-rule="evenodd"/>
          </g>
          <g id="Group_1888" data-name="Group 1888">
            <path id="Path_1919" data-name="Path 1919" d="M508.893,36.412H512v-.586a10.035,10.035,0,0,0-.312-2.492Z" fill="#be63f9" fill-rule="evenodd"/>
          </g>
          <g id="Group_1889" data-name="Group 1889">
            <path id="Path_1920" data-name="Path 1920" d="M502,36.432a2.344,2.344,0,1,0,1.657.687A2.331,2.331,0,0,0,502,36.432Z" fill="#be63f9" fill-rule="evenodd"/>
          </g>
          <g id="Group_1890" data-name="Group 1890">
            <path id="Path_1921" data-name="Path 1921" d="M502.359,35.278l7.148-6.522H512v2.492l-6.506,7.163a3.51,3.51,0,0,0-3.135-3.133Z" fill="#be63f9" fill-rule="evenodd"/>
          </g>
        </g>
      </g>
    </g>
  </g>
</svg>
